<?xml version="1.0" encoding="UTF-8"?>
<!DOCTYPE svg PUBLIC "-//W3C//DTD SVG 1.1//EN" "http://www.w3.org/Graphics/SVG/1.1/DTD/svg11.dtd">
<!-- Creator: CorelDRAW X7 -->
<svg xmlns="http://www.w3.org/2000/svg" xml:space="preserve" width="8.26772in" height="8.26666in" version="1.1" style="shape-rendering:geometricPrecision; text-rendering:geometricPrecision; image-rendering:optimizeQuality; fill-rule:evenodd; clip-rule:evenodd"
viewBox="0 0 8268 8267"
 xmlns:xlink="http://www.w3.org/1999/xlink">
 <defs>
  <style type="text/css">
   <![CDATA[
    .fil1 {fill:#003900}
    .fil0 {fill:#EBDE10}
    .fil2 {fill:#003900;fill-rule:nonzero}
    .fil3 {fill:#EBDE10;fill-rule:nonzero}
   ]]>
  </style>
 </defs>
 <g id="Layer_x0020_1">
  <metadata id="CorelCorpID_0Corel-Layer"/>
  <g id="_1835957416928">
   <path class="fil0" d="M7082 5087c49,469 -347,866 -653,1170 -52,51 -104,101 -153,154 -22,24 -72,78 -89,108 -32,135 -160,224 -297,206 -22,4 -61,18 -80,25 -89,35 -175,78 -261,121 -145,70 -289,140 -440,196 -287,107 -597,163 -885,44 -78,32 -160,52 -245,61 -374,40 -753,-141 -1080,-301 -87,-43 -173,-86 -262,-121 -19,-7 -58,-21 -79,-25 -137,18 -266,-71 -298,-205 -17,-30 -67,-85 -88,-109 -49,-53 -102,-103 -153,-154 -307,-304 -703,-701 -654,-1170 -326,-356 -251,-887 -179,-1327 12,-70 25,-139 33,-210 3,-31 11,-104 6,-137 -50,-121 -5,-262 106,-332 23,-24 61,-88 77,-116 35,-61 67,-124 100,-186 206,-391 476,-892 950,-981 250,-401 807,-496 1237,-566 67,-11 133,-22 199,-35 36,-7 128,-25 161,-42 99,-79 239,-79 337,0 33,17 125,35 161,42 66,13 132,24 199,35 431,70 987,165 1237,566 474,89 744,590 950,981 33,62 65,125 101,186 16,28 53,92 76,116 112,70 156,211 106,332 -5,33 3,106 6,137 9,71 21,140 33,210 72,440 148,971 -179,1327z"/>
   <path class="fil1" d="M6966 5049c80,445 -327,844 -615,1129 -53,52 -106,104 -157,158 -25,28 -104,117 -113,150 -16,86 -97,143 -183,129 -27,-4 -101,22 -127,32 -93,36 -182,81 -271,124 -377,185 -863,421 -1276,219 -414,202 -900,-34 -1277,-219 -89,-43 -178,-88 -271,-124 -26,-10 -99,-36 -127,-32 -86,14 -167,-43 -183,-128 -8,-34 -88,-123 -113,-151 -51,-54 -104,-106 -157,-158 -288,-285 -695,-684 -614,-1129 -338,-322 -255,-854 -187,-1271 12,-72 25,-143 33,-215 5,-37 16,-155 1,-188 -33,-74 -5,-162 66,-203 29,-19 90,-119 108,-151 37,-63 69,-127 103,-191 194,-367 461,-878 921,-931 212,-402 781,-492 1186,-559 77,-12 356,-53 409,-97 59,-49 144,-49 204,0 53,44 332,85 408,97 406,67 974,157 1186,559 460,53 728,564 921,931 34,64 67,128 103,191 19,32 79,132 109,150 70,42 98,130 65,204 -15,33 -3,151 1,188 8,72 21,143 33,215 69,417 151,949 -186,1271z"/>
   <path class="fil0" d="M2588 1989c171,-405 756,-493 1140,-556 100,-16 377,-55 453,-118 25,-20 60,-20 85,0 76,63 353,102 453,118 385,63 969,151 1140,556 448,13 716,538 899,885 44,84 167,332 247,379 30,17 41,53 27,84 -41,91 11,357 27,457 66,396 156,934 -197,1221 116,422 -305,826 -577,1096 -68,67 -279,266 -296,358 -7,35 -40,59 -76,53 -51,-8 -129,19 -176,37 -94,37 -187,84 -278,128 -359,176 -850,420 -1235,196 -386,224 -876,-20 -1236,-196 -90,-44 -184,-91 -278,-128 -47,-18 -125,-45 -176,-37 -35,6 -69,-18 -76,-53 -17,-92 -228,-291 -296,-358 -272,-270 -693,-674 -577,-1096 -353,-287 -262,-825 -197,-1221 16,-100 68,-366 27,-457 -14,-31 -2,-67 27,-84 80,-47 203,-295 247,-379 183,-347 452,-872 899,-885z"/>
   <path class="fil2" d="M1748 2905c-102,193 -188,355 -273,405 44,97 14,279 -22,494 -66,403 -151,921 197,1177 1,1 3,2 4,3l0 0c1,1 2,1 4,2l5 4 -2 7 0 0c-139,387 249,771 548,1067 161,159 296,294 315,393 109,-18 286,69 494,171 372,182 846,414 1201,180l5 -3 4 3c356,234 830,2 1202,-180 208,-102 384,-189 494,-171 18,-99 154,-234 314,-393 300,-296 687,-680 549,-1067l-1 0 -2 -7 5 -4c2,-1 3,-1 4,-2l0 0c2,-1 3,-2 4,-3 349,-256 263,-774 197,-1177 -36,-215 -66,-397 -22,-494 -85,-50 -171,-212 -272,-405 -198,-375 -458,-868 -881,-850l-6 0 -2 -6c-132,-391 -681,-481 -1103,-551 -220,-36 -406,-66 -484,-132 -79,66 -265,96 -485,132 -422,70 -971,160 -1103,551l-2 6 -6 0c-423,-18 -682,475 -880,850z"/>
   <path class="fil0" d="M5975 3529c7,8 19,22 20,34 3,19 2,34 -13,39 -33,11 -61,-24 -87,-22 -21,8 -11,74 -42,81 -17,3 -29,-9 -38,-21 -9,-13 -13,-26 -20,-39 -6,-33 -11,-59 -5,-98 3,-23 14,-66 25,-77 13,-1 33,15 44,21l81 52c13,10 20,23 35,30zm-3599 410l18 28c0,1 2,2 2,3 5,4 0,1 4,2 4,12 1,5 8,12l29 23 0 99c-46,0 -98,-68 -113,-119 -4,-12 -3,-15 -15,-17 -41,137 -29,358 94,464 54,46 74,31 80,58 6,23 25,100 24,114 -34,-1 -112,-75 -139,-104 -20,-22 -27,-37 -42,-37 -9,1 -9,14 -10,22 -1,9 -1,19 0,28 0,21 4,30 6,49 4,33 25,93 41,124 8,14 10,24 18,38l43 67c29,45 69,80 107,113 48,42 55,40 100,66 11,6 20,24 19,38 -90,6 -177,-61 -210,-72 -3,76 51,183 101,239 34,37 88,74 136,90 13,4 29,8 43,13l88 24c23,5 31,3 54,4 14,1 20,11 29,20 15,17 28,24 29,37 -18,12 -96,4 -120,-1l-87 -13c-14,-4 -9,-6 -29,-7 3,15 13,26 23,36 11,13 34,53 78,92 71,64 94,102 192,146 23,11 78,12 103,12 17,0 65,-8 82,-14 51,-20 51,-25 94,5l106 62c19,10 -1,4 38,20l275 118 134 38c30,6 61,17 96,20 16,5 123,20 139,14 2,7 -1,4 2,7 -24,4 -26,8 -43,13 -89,27 -102,39 -168,67 -34,14 -90,42 -112,68 2,11 29,52 39,52l44 -30c14,-9 81,-43 101,-50 35,-12 50,-24 110,-42 39,-12 141,-43 180,-48 25,-4 38,-9 69,-7 14,1 50,10 64,14 35,11 80,24 113,39 18,8 32,14 50,23 17,8 13,7 22,14l27 14c18,11 28,19 45,30 19,12 27,26 42,35 11,-4 46,-42 46,-47 0,-13 -62,-54 -77,-65 -9,-7 -21,-13 -31,-19 -27,-17 -21,-12 -45,-26 -33,-17 -86,-35 -88,-36 7,-8 0,-2 11,-5 3,-1 3,0 7,-1 6,-3 4,-2 8,-5 21,7 151,-14 160,-17 15,-6 23,-3 38,-7 9,-2 8,-3 16,-5l55 -11c41,-12 58,-14 105,-30l71 -21c32,-8 69,-30 94,-40 14,-6 19,-9 32,-15l56 -31c57,-33 55,-54 85,-42 21,9 107,4 129,-1 59,-15 49,-8 100,-32 23,-11 59,-46 74,-63 9,-10 33,-43 31,-59 23,-16 25,-100 24,-124 0,-59 -8,-47 40,-49 14,0 25,-3 37,-4 61,-7 110,-10 166,-42 49,-27 76,-58 91,-114 9,-34 5,-80 1,-113l-3 -33c1,0 1,-1 1,-2 1,-6 14,-3 26,-7 21,-7 39,-21 55,-36 29,-29 35,-43 52,-71 14,-21 26,-69 27,-99 1,-19 0,-41 0,-60 -2,-41 -17,-48 3,-68l30 -30c10,-11 30,-31 33,-49 5,-4 10,-17 12,-22 14,-30 14,-66 6,-96 -7,-23 -24,-52 -36,-73 -6,-9 -12,-14 -11,-28 8,-6 22,-15 31,-19 31,-17 60,-53 67,-89 10,-51 -32,-153 -41,-159l-35 -75c24,-25 41,-22 62,-75 12,-30 12,-58 9,-94 -1,-12 1,-25 -9,-29 4,-24 -20,-52 -30,-68 -27,-47 -81,-73 -84,-80 -3,-7 21,-40 28,-74 4,-18 7,-20 8,-42 2,-57 2,-65 -46,-109 -7,-6 -54,-41 -65,-34 -3,-17 -21,-9 -37,-25 1,-9 17,-35 19,-55 2,-29 14,-57 -2,-109 -3,-9 -14,-34 -19,-42 -26,-39 -68,-58 -110,-77 -12,-5 -33,-12 -46,-14 -8,-1 -48,-9 -52,-10 -9,-8 17,-61 5,-119 -16,-78 -29,-103 -95,-132 -57,-24 -118,-29 -130,-34 -4,-11 -8,-62 -19,-91 -2,-5 -6,-14 -8,-19 -4,-9 -3,-14 -7,-21 -49,-77 -158,-46 -222,-56 -6,-22 -10,-41 -22,-60 -22,-34 -36,-51 -74,-70 -21,-10 -73,-11 -102,-11 -23,0 -33,4 -53,5 -9,1 -17,1 -26,3 -11,3 -10,5 -26,3 -17,-26 -25,-38 -47,-57 -29,-25 -21,-23 -65,-42 -69,-32 -154,32 -155,36 -20,5 -70,52 -71,55 0,11 3,15 8,26 6,12 7,9 13,19 12,15 12,34 57,78 27,26 45,39 80,54 35,14 91,17 120,10 18,-4 37,-12 58,-12 12,41 56,119 94,135 54,23 134,-9 155,-9 3,21 4,24 10,40 3,6 15,26 18,31 32,43 51,72 106,92 32,11 60,4 96,6 2,71 -4,35 8,98 4,20 -2,5 9,28 2,4 3,5 5,9 26,41 41,51 91,66 11,4 30,10 41,11 38,5 55,-3 46,28 -3,10 -4,8 -5,22 -1,19 0,38 0,56 1,36 14,102 36,132 7,9 17,19 27,27 21,19 47,31 75,38 0,23 -12,30 -10,108 1,58 23,103 56,146 6,8 9,9 14,16 13,17 29,28 45,41l16 15c-1,11 -16,36 -26,68 -15,51 2,114 27,156l28 40c21,23 13,14 -17,54 -9,12 -22,29 -27,46 -5,6 -13,24 -14,33 -19,16 -16,73 -10,98 3,12 10,32 15,43 31,64 28,23 -13,78 -18,24 -39,44 -48,75 -12,36 -14,94 -6,134 2,11 7,30 7,42 -5,3 -40,13 -45,17l-14 11c-14,2 -55,33 -56,47 -11,6 -20,26 -24,37 -7,21 -13,87 -13,113 0,24 6,34 5,59l-34 14c-12,-1 -39,12 -42,18 -19,3 -49,29 -58,40 -13,14 -29,55 -36,75 -15,42 -17,63 -25,110 -2,9 -4,35 -7,42 -8,2 -30,4 -41,5l-29 7c-1,0 -4,1 -5,1 -4,3 -3,2 -6,4 -6,0 0,0 -7,1 -18,4 -45,13 -62,19 -66,27 -109,68 -147,132 -12,21 -19,40 -28,62 -9,23 -16,82 -8,103 3,7 7,8 5,18 -3,16 -45,32 -55,38 -18,13 -16,9 -31,17l-94 43 -156 51c-11,3 -3,4 -18,6 -16,2 -23,5 -37,8 -9,2 -11,3 -17,5 -7,1 -14,1 -22,3 -11,2 -23,7 -36,10l-124 16c-13,2 -26,4 -41,6 -14,2 -30,1 -45,2l-79 12c-15,3 -27,1 -41,5 -11,4 -26,6 -40,7l-124 -15c-16,-4 -158,-7 -176,-9 -17,-3 10,-3 -38,-8 -13,-1 -23,-5 -38,-8 -28,-4 -85,-20 -112,-28 -58,-16 -184,-59 -236,-86l-155 -76c-21,-10 -38,-20 -60,-34 -19,-12 -44,-22 -57,-36 -8,-21 15,-133 -39,-242 -6,-11 -11,-19 -17,-30l-60 -80c-17,-20 -29,-31 -45,-49 -16,-18 -29,-31 -46,-47 -10,-9 -38,-41 -51,-41l16 70c13,36 19,128 11,161 -4,18 -19,49 -34,53 -6,0 -66,-63 -78,-77 -10,-11 -2,-23 4,-36 11,-24 18,-49 27,-76 31,-87 -2,-185 -40,-261 -12,-24 -67,-119 -89,-124l-36 107c-8,18 -14,32 -24,48 -5,7 -10,15 -14,22 -6,9 -12,13 -13,22 -10,4 -8,7 -13,10 -5,3 -5,3 -11,-1 -4,-4 -11,-19 -12,-26 5,-16 22,-24 27,-44 10,-18 21,-34 29,-51 5,-10 9,-19 13,-30 2,-8 4,-10 6,-15 18,-35 19,-130 3,-170 -2,-6 -1,-8 -3,-15 -2,-11 -3,-9 -5,-18 -3,-12 -4,-23 -8,-33l-26 -60c-13,-30 -30,-55 -45,-82 -5,-9 -8,-22 -19,-25 -14,9 -20,61 -28,77 -6,10 -7,11 -12,24 -7,17 -15,29 -23,46 -5,9 -8,13 -15,21 -7,9 -7,14 -21,13 -6,-13 -19,-85 -18,-105 71,-39 83,-135 95,-210 6,-39 27,-262 14,-289 -12,1 -11,9 -17,19 -12,19 -33,45 -51,59 -2,2 -5,5 -8,8 -16,17 -35,27 -55,38 -36,20 -29,4 -29,-36 0,-16 0,-33 2,-49 22,-8 39,0 65,-14 21,-12 31,-17 47,-35 27,-29 46,-64 59,-103l35 -167c2,-11 2,-24 4,-36 3,-17 5,-61 1,-79 -13,1 -24,15 -34,23 -29,22 -82,60 -121,60 -1,-23 19,-67 25,-89 68,-8 46,9 119,-28 39,-20 83,-79 106,-114 22,-33 72,-121 73,-152 -28,-1 -135,27 -154,11 -8,-8 6,-19 10,-27 3,-5 14,-23 19,-25 19,-2 40,3 63,3 12,0 22,-2 31,-3l52 -17c21,-10 47,-24 63,-40l52 -51c14,-17 64,-88 65,-109 -33,0 -48,8 -84,7 -21,0 -55,-6 -73,-18 1,-7 2,-10 6,-15l37 -36c27,8 57,47 157,20 16,-4 30,-14 43,-22 29,-20 117,-114 113,-149 -22,-1 -46,1 -66,-3l-42 -11 -13 -7c5,-12 35,-30 39,-30 1,0 52,27 96,28 80,1 108,-9 170,-45 44,-25 41,-33 72,-52 9,-6 13,-11 15,-20 -33,0 -67,-2 -97,-10 -14,-4 -16,-6 -18,-21 97,-30 90,9 211,-12 73,-12 95,-15 155,-48 9,-5 19,-10 27,-15 18,-13 74,-64 78,-83 -15,-15 -54,-20 -78,-25 -7,-2 -7,-4 -16,-6 -38,-9 -75,-14 -114,-16 -26,-1 -62,-2 -88,1 -14,2 -49,16 -62,23 -33,15 -70,56 -86,88 -6,14 -8,16 -25,19 -16,3 -15,7 -37,8 -2,-71 67,-111 69,-135 -14,0 -52,9 -64,15 -8,4 -5,2 -14,5 -51,15 -99,55 -135,93 -26,27 -47,58 -66,96 -6,13 -7,15 -11,31 -5,16 -31,28 -44,38 -10,8 -14,13 -30,14 0,-29 5,-53 15,-73 7,-15 29,-45 30,-58 -51,1 -157,95 -189,133 -19,24 -43,79 -46,115 -1,10 -1,28 1,38 3,14 10,17 -1,29 -7,8 -32,39 -40,42 -14,-15 -15,-121 -7,-150 4,-16 8,-29 8,-47 -24,1 -41,25 -54,37 -38,37 -72,87 -97,135 -34,65 -55,146 -33,229 3,9 14,19 8,35 -3,8 -4,5 -10,12 -10,12 -16,34 -30,43 -34,-14 -40,-189 -45,-198 -30,2 -102,157 -110,191 -1,6 -6,30 -8,36 -8,20 -12,49 -13,72 -2,53 -3,104 20,154 4,9 15,21 17,26 4,13 -7,17 -6,32 -5,4 -3,1 -6,7l-10 29 -11 33c-4,7 0,1 -4,5 -8,-3 -21,-24 -25,-32 -15,-27 -24,-55 -31,-86 -2,-7 -10,-33 -18,-40 -8,10 -32,84 -36,95 -10,34 -19,69 -26,103 -8,38 -13,75 -12,117 0,48 6,96 31,137zm61 -5c9,1 13,21 29,21 6,-9 19,-60 21,-73 1,-28 5,-49 2,-78 -4,-28 -3,-51 -11,-72 -9,-23 -38,-93 -61,-102 -29,57 -27,264 20,304zm84 14c-2,-66 11,-107 39,-148 7,-10 13,-19 20,-27 33,-40 19,-19 37,-35 4,-3 5,-6 11,-10l21 -12c11,-2 2,-1 6,1 9,16 0,51 -5,65 -4,11 -5,21 -8,31 -4,12 -9,19 -12,29 -19,23 -9,33 -70,95 -9,9 -22,21 -35,23 -2,-4 -3,-6 -4,-12zm2196 -1467c20,0 52,-22 113,-17 21,2 32,13 18,32 -4,5 -7,6 -9,8 -20,5 -34,2 -49,13 -5,38 15,60 11,97 -24,17 -52,-7 -65,-14 -21,-12 -69,-57 -72,-82 10,-7 12,-10 25,-19 14,-9 22,-10 28,-18zm225 141c0,-20 -15,-29 -12,-53 24,-8 65,-23 90,-25 49,-2 124,6 120,65 -13,11 -22,10 -42,15 -22,5 -19,12 -19,36 1,30 1,48 -19,62 -18,12 -38,6 -54,-5 -7,-5 -46,-64 -48,-69 -3,-5 -5,-10 -6,-13l-10 -13zm451 95c9,9 46,22 18,45 -16,14 -50,16 -74,19 -19,29 -1,58 -16,81 -14,22 -48,-4 -60,-14 -29,-25 -48,-104 -43,-144 29,-19 99,-7 136,2 14,4 23,9 39,11zm133 164c8,7 85,25 109,58 18,24 -10,36 -29,43 -23,9 -46,3 -65,16 -8,25 3,24 0,43 -2,10 -12,19 -22,22 -58,16 -83,-142 -53,-191 25,-2 40,8 60,9zm301 328c7,14 26,21 31,41 9,30 -6,37 -23,48 -29,4 -42,4 -69,-5 -7,-3 -9,-4 -18,-4 -2,28 18,31 3,79 -5,15 -4,9 -12,19 -31,2 -40,-13 -53,-31 -35,-54 -40,-168 -17,-201 63,-8 136,47 158,54zm270 980c-5,20 18,41 -5,71 -7,10 -15,15 -29,16 -22,2 -20,-6 -33,-6 -3,-10 -6,-14 -10,-24 -3,-10 -1,-16 -10,-19 -22,-14 -45,15 -85,15 -45,-1 -32,-50 -23,-70 9,-19 32,-47 45,-59 11,-11 44,-45 61,-49 5,1 13,8 15,11 34,39 46,69 66,105 6,11 1,5 8,9zm-60 300l10 42c5,11 7,30 4,46 -7,36 -39,32 -60,7 -31,-36 -24,-49 -60,-39 -17,5 -23,9 -37,15 -8,3 -30,11 -35,14 0,0 -1,0 -1,1 -5,0 -13,1 -18,1 -49,-2 16,-107 35,-128 10,-12 83,-84 97,-78 15,5 47,82 56,105 5,12 0,8 9,14zm-314 278l40 -32c32,-22 125,-66 157,-66 18,20 41,98 43,129 2,20 -1,41 -3,58 -1,1 -48,92 -76,86 -23,-6 -33,-75 -52,-95 -18,-18 -57,5 -80,1 -25,-3 -48,-18 -44,-50 1,-16 11,-22 15,-31zm-160 341c-7,-35 -2,-49 20,-68 40,-33 69,-32 97,-44 15,-6 113,-24 124,-13 6,11 12,55 13,71 2,31 -2,54 -3,84 -2,2 -3,5 -6,14 -8,30 -26,45 -48,64l-27 20c-8,5 -41,31 -53,-10 -4,-11 -3,-26 -3,-40 0,-23 -1,-23 -7,-41 -74,-8 -65,10 -107,-37zm-264 233c15,-2 31,-6 43,-9l39 -10c9,-1 93,-14 94,-2 0,1 1,2 1,2l1 16c0,21 -3,83 -9,102 -3,10 -7,26 -9,39 -4,2 -9,18 -12,24 -9,20 -78,102 -102,33 -9,-28 4,-44 -30,-51 -16,-3 -16,-4 -34,-6 -13,-1 -5,1 -14,-3 -18,-8 -43,-14 -44,-56 -2,-56 67,-72 76,-79zm-2222 -154c18,0 40,39 55,60 19,27 51,75 63,110 4,14 13,32 15,42l8 51c5,20 7,12 5,48 -24,3 -103,-67 -125,-112 -28,-55 -33,-86 -31,-150 0,-7 8,-45 10,-49zm-25 371c-98,0 -179,-34 -236,-94 -5,-5 -44,-47 -41,-57 2,-8 15,-7 25,-8 80,-10 137,-8 212,23 24,10 151,94 152,119 -20,11 -83,17 -112,17zm-369 -1050c12,9 27,63 34,80 25,58 20,145 3,208 -4,13 -22,79 -34,86l-8 -7c-7,-9 -31,-65 -33,-73 -10,-32 -17,-68 -17,-106 -1,-47 1,-69 13,-108 6,-18 30,-70 42,-80zm-149 -222c-1,-50 6,-53 10,-80 9,-59 62,-106 75,-103 8,3 7,26 8,35 1,14 0,30 1,44 0,39 -7,105 -20,136 -13,28 -32,57 -41,75 -3,6 -3,7 -6,13 -6,8 -2,6 -13,8 -2,-4 0,2 -4,-8 -6,-21 -10,-99 -10,-120zm18 -897c0,-15 -1,-41 1,-55 8,-46 3,-39 20,-85 7,-18 9,-29 21,-35 19,47 34,275 -32,271 -6,-15 -10,-75 -10,-96zm72 145c-2,-62 23,-110 66,-149 34,-31 78,-40 127,-38 -2,45 -113,185 -193,187zm257 -445c22,0 44,5 69,3 39,-4 39,-12 59,-15 -2,13 -9,18 -16,25 -58,58 -94,95 -180,94 2,-19 7,-21 16,-33 15,-20 30,-45 52,-74zm-126 57c-18,-26 2,-121 11,-145 3,-6 2,-3 4,-7 15,-35 18,-41 42,-74 17,-23 7,-18 20,-19 8,14 4,57 4,78 0,72 -1,39 -48,119 -7,12 -23,43 -33,48zm260 -210c3,-33 46,-66 72,-76 17,-7 42,-9 64,-7 11,1 43,8 55,16 -3,11 -24,32 -34,37 -12,6 -12,8 -21,14 -30,21 -95,36 -136,16zm-34 -65c-9,-87 67,-156 92,-156 2,25 -1,38 -5,57 -3,13 -10,36 -17,47 -13,21 -39,57 -70,52zm306 -145c34,-31 126,-27 152,-16 -2,18 -51,32 -68,34 -25,3 -40,1 -61,-4 -9,-3 -19,-2 -23,-14zm94 -200c2,30 -48,103 -76,128 -5,5 -36,27 -46,16 -17,-17 84,-140 122,-144zm160 40c5,-56 95,-84 150,-84 27,0 93,12 110,23 -4,13 -39,32 -52,40 -19,11 -38,19 -61,27 -34,11 -122,22 -147,-6zm-711 2653c4,14 6,6 6,18 -32,4 -84,-15 -107,-22 -62,-19 -120,-54 -160,-104 -11,-13 -19,-26 -25,-42 -12,-31 -17,-29 -14,-47 24,-1 69,9 86,17 6,4 10,8 16,11 8,3 11,3 18,7 20,10 36,24 61,41l80 74c0,-1 2,1 2,1 2,10 11,12 19,22 7,11 10,19 18,24zm-448 -640c7,-7 71,36 80,42 43,33 63,56 88,101 16,30 45,113 46,146 -44,-3 -124,-83 -143,-114 -23,-38 -27,-53 -43,-84 -12,-24 -15,-31 -22,-57l-3 -9c-2,-8 -10,-18 -3,-25zm82 -179c-30,-6 -99,-113 -106,-155 -2,-15 -3,-31 -6,-47 -2,-14 -10,-88 0,-97 5,-4 7,-4 18,6 37,28 62,55 78,101 9,26 17,157 16,192zm437 797c-22,-7 -62,-71 -75,-99 -4,-7 -6,-12 -8,-19 -15,-54 -20,-62 -8,-121 4,-22 23,-65 38,-75l29 43c20,46 25,59 35,103 6,21 7,99 2,122 -1,8 -3,17 -5,25 -2,14 -1,12 -8,21zm3163 -1394c1,4 -2,-1 2,6 9,15 12,11 27,48 19,46 4,55 -2,67 -31,2 -36,-5 -56,-17 -39,-22 -46,-43 -62,11 -7,21 -14,19 -16,29 -54,19 -65,10 -63,-54 1,-32 17,-76 32,-104 40,-74 45,-59 93,-23 10,7 13,9 21,17 12,12 11,14 24,20z"/>
   <path class="fil0" d="M4333 3708c-5,18 -10,37 -15,55 -51,30 -101,59 -151,89 -51,30 -101,59 -151,89 5,-18 10,-37 15,-55 51,-30 101,-60 151,-89 51,-30 101,-59 151,-89zm-133 4c-5,16 -10,33 -15,49 -55,33 -110,66 -166,99 5,-16 10,-33 15,-49 55,-33 111,-66 166,-99zm289 582c15,-15 32,-20 72,-22 -45,48 -48,100 12,49 -6,71 -95,65 -61,-15 -30,8 -25,3 -23,-12zm-437 -30c5,-17 10,-34 14,-51 21,4 42,7 63,10 -6,21 -12,42 -17,63 -18,-2 -35,-5 -52,-8 -5,17 -10,34 -14,51 -21,-3 -42,-6 -63,-10 6,-21 12,-42 17,-63 18,3 35,6 52,8zm-150 -298c5,-19 10,-37 15,-56 23,4 46,7 69,11 -6,23 -13,46 -19,69 -19,-3 -38,-6 -57,-9 -5,19 -10,38 -15,56 -23,-3 -46,-7 -69,-11 6,-23 13,-46 19,-69 19,3 38,6 57,9zm355 485c6,4 12,10 17,18 5,8 8,16 8,24 0,7 -3,13 -9,17 -6,4 -9,9 -9,16 0,7 2,12 6,15 4,3 8,5 13,4 8,0 14,-3 20,-9 5,-6 8,-14 8,-23 0,-15 -6,-30 -17,-44 -11,-15 -23,-24 -35,-28 -4,-1 -6,0 -6,4 0,2 1,4 4,6zm-232 -318c41,53 87,64 145,27 17,-2 21,36 19,72 -3,45 -63,109 -125,143 -62,34 -127,39 -139,-30 56,-53 12,-188 100,-212zm465 -126c-16,-51 26,-45 43,-17 -14,5 -29,11 -43,17zm-63 -210c-2,5 1,10 4,13 6,5 17,10 24,12 -4,-11 -8,-24 -16,-27 -4,-2 -10,-3 -12,2zm-200 635c-55,38 -110,77 -165,115 3,-15 7,-31 10,-46 57,-40 114,-80 170,-120 -2,9 -4,19 -6,28 -3,14 -6,21 -9,23zm194 -656c2,-5 5,-9 8,-12 10,-10 23,-7 31,4 11,14 13,42 9,58 6,2 12,2 18,3 2,10 5,21 7,32 -11,-1 -21,-3 -32,-5 -3,21 -51,99 -74,120 -6,5 -51,14 -59,10 42,-34 108,-104 116,-134 -34,-15 -42,-41 -24,-76zm-197 103c-1,15 0,39 14,44 12,4 22,-8 27,-18 8,-13 8,-30 11,-47 2,-1 5,-2 8,-3 5,14 6,29 14,37 12,14 25,6 31,-9 5,-16 7,-38 9,-48 3,-2 5,-3 8,-5 1,11 2,28 2,46 0,19 -2,48 -19,60 -13,11 -33,9 -47,-6 -6,11 -13,23 -23,32 -17,13 -40,12 -47,-11 -6,-21 0,-54 4,-68 3,-1 6,-3 8,-4zm220 150c-22,-36 -18,-66 6,-90 21,-17 45,-17 73,-4 35,15 47,32 50,48 2,10 1,26 -3,38 -5,13 -10,15 -22,22 -11,6 -27,14 -32,16 16,25 26,37 38,51 -29,-4 -62,-20 -73,-33 -25,15 -48,30 -64,45 49,13 97,13 137,6 40,-6 72,-20 88,-32 -5,26 -9,53 -14,79 -2,15 -55,12 -118,40 -130,53 -164,137 -141,163 45,28 70,-6 89,6 3,2 6,4 7,7 13,23 27,46 40,70 -52,35 -101,27 -142,3 -41,-24 -73,-64 -90,-93 -16,-29 -31,-58 -47,-86 -55,119 -145,188 -220,199 -74,11 -133,-36 -123,-149 -43,-23 -71,-61 -82,-107 -10,-45 -4,-99 20,-152 4,62 13,116 39,143 20,21 47,28 61,-4 11,-25 18,-68 29,-104 13,-41 37,-72 78,-89 15,-5 28,-4 31,12 -14,49 49,74 81,63 11,-7 -40,-43 -18,-92 6,-21 12,-41 18,-62 32,23 26,64 52,109 13,4 29,-28 44,-53 10,38 3,73 -22,107 14,42 27,86 43,126 17,40 37,76 65,104 10,-45 20,-89 47,-125 -27,1 -51,17 -74,36 -22,-50 -16,-123 29,-156 33,-25 78,-42 120,-62zm565 -105c-16,10 -46,20 -86,27 -40,4 -83,9 -107,-1 -14,-8 -3,-18 2,-15 29,1 107,-4 166,-29 7,-5 36,10 25,18zm-9 -68c14,18 30,32 46,46 9,8 -8,21 -16,16 -19,-14 -33,-30 -48,-49 -6,-11 0,-21 18,-13zm-225 -119c-38,-15 -96,-50 -94,-87 -52,14 -82,-5 -92,-46 1,-13 5,-27 13,-32 12,-10 21,2 24,26 3,29 54,47 72,9 6,-24 10,-34 26,-53 29,-15 84,-22 54,8 -33,25 -77,53 -59,102 17,23 43,33 70,44 17,6 27,5 41,4 28,-10 50,13 35,29 -42,3 -76,15 -100,36 21,-6 42,-6 63,3l18 20c5,7 25,-6 29,14 -7,11 -17,15 -6,23 2,15 33,-24 32,12 -1,11 -16,19 0,28 13,5 28,-53 43,-3 -13,22 -45,36 -68,27 -16,-11 -17,-18 -10,-37 -7,-2 -21,-3 -28,-9 -3,-8 -8,-15 4,-28 -13,-4 -26,-13 -31,-27 -31,-10 -40,10 -46,7 -12,1 -30,-27 -24,-41 11,-12 20,-22 34,-29zm101 6c21,0 21,37 0,37 -21,0 -21,-37 0,-37zm28 46c19,0 19,35 0,35 -20,0 -20,-35 0,-35zm10 -40c20,0 20,35 0,35 -19,0 -19,-35 0,-35zm1 -60c20,-10 53,26 44,41 -3,11 -15,14 -24,15 -5,1 -8,1 -6,-4l11 -9c6,-9 -14,-27 -21,-18 -2,6 -3,11 -2,17 -1,5 -7,4 -9,-4 -2,-13 -3,-28 7,-38zm-419 -345c20,-10 55,28 46,44 -4,12 -16,15 -26,15 -5,2 -8,2 -6,-4l11 -9c7,-10 -15,-29 -21,-19 -3,6 -4,11 -3,18 -1,5 -7,4 -9,-5 -2,-14 -4,-30 8,-40zm287 248l96 43c8,16 -2,24 -21,19l-88 -40c-20,-16 -2,-21 13,-22zm-52 -91c-10,-11 -2,-42 29,-25 16,8 12,38 -6,46 -19,7 -59,0 -76,-23 17,5 33,11 53,2zm-1287 368c-8,13 -40,12 -30,-22 4,-18 34,-21 45,-5 12,17 14,58 -4,80 1,-18 3,-35 -11,-53zm1164 -421c0,-11 49,-22 40,2 -12,28 -33,77 -70,110 -15,12 -51,24 -39,2 34,-22 55,-68 69,-114zm-43 -41l64 -15c7,-5 27,13 16,20 -22,5 -46,12 -68,18 -10,-3 -29,-13 -12,-23zm-81 9c27,0 27,41 0,41 -27,0 -27,-41 0,-41zm-89 17c9,-14 28,-20 30,3 -22,51 0,87 47,93 40,-1 57,-22 44,-66 -2,-10 38,-38 46,-10 3,31 -2,55 -19,84 -19,20 -38,28 -62,28 -36,-2 -83,-14 -97,-60 -4,-26 -5,-51 11,-72zm-80 38c12,-12 20,10 21,20 -7,13 -27,11 -30,-2 -1,-8 3,-14 9,-18zm-92 -143c-14,-19 22,-27 37,-4 15,33 37,64 62,88 18,-32 41,-64 65,-92 19,-13 61,-10 39,25 -24,24 -49,44 -68,74 -7,12 -19,18 0,39 23,37 -6,66 -42,67 -35,-5 -58,-41 -29,-70 4,-6 21,-15 6,-29 -28,-30 -65,-81 -70,-98zm100 2c16,-6 31,-12 48,-22 19,-10 -5,-23 -19,-17 -15,9 -30,13 -45,18 -14,5 -1,23 16,21zm-143 -18c0,-10 28,-31 28,-2 3,36 6,53 3,92 0,16 -5,47 -17,59 -15,18 -21,13 -15,-16 9,-43 3,-88 1,-133zm17 197c20,-6 38,-18 54,-31 23,-13 1,-22 -9,-20 -18,12 -36,23 -56,30 -17,5 -8,20 11,21zm-189 -89c12,37 27,64 72,69 30,1 63,-22 45,-85 -3,-29 -8,-54 -5,-92 2,-31 35,-57 39,0 -3,45 0,90 5,134 -4,44 -38,63 -71,67 -50,7 -79,-18 -102,-58 -8,8 -12,17 -13,27 -1,10 -1,30 21,19 11,-7 25,0 11,12 -24,23 -58,23 -60,-17 -2,-29 14,-51 22,-76 1,-31 30,-40 36,0zm63 -98c-8,-36 30,-27 28,-1l0 44c0,20 -12,25 -18,4l-10 -47zm-126 80c25,-11 50,-27 73,-47 21,-14 -9,-21 -19,-14 -21,19 -44,33 -68,46 -23,9 -2,22 14,15zm-90 11c-5,-11 10,-64 24,-20 17,36 33,77 39,130 4,19 -20,46 -21,18 -7,-44 -18,-87 -42,-128zm61 183l34 -39c19,-16 -10,-17 -16,-14l-31 33c-13,17 1,27 13,20zm-66 -12c11,0 11,22 0,22 -10,0 -10,-22 0,-22zm-106 -12c-24,1 -74,-22 -32,-42 36,-7 69,-9 115,9 0,-18 -1,-54 5,-67 7,-18 38,-22 31,20 -5,20 -14,41 -7,67 15,9 32,19 29,49 -5,31 -50,34 -64,-2 -3,-13 -1,-25 1,-38 -24,-13 -55,-16 -78,4zm16 -100c-6,0 -15,9 -9,15 13,6 46,12 44,-14 10,6 29,-8 14,-35 -8,-8 -13,-2 -13,10 3,14 -4,13 -10,8 -5,0 -8,2 -8,7 4,14 -4,16 -18,9zm-240 261c-6,3 -9,16 0,19 14,0 49,-10 34,-35 13,1 24,-21 -4,-40 -11,-3 -12,4 -7,16 10,12 3,14 -5,13 -5,2 -7,5 -4,10 10,12 4,18 -14,17zm236 -280l59 -42c12,-13 -18,-16 -27,-10l-58 42c-19,18 18,16 26,10zm-105 97c32,19 63,41 92,69 15,22 18,61 -13,27 -28,-21 -57,-45 -89,-61 -14,-9 -22,-56 10,-35zm-40 116c-10,-17 3,-60 27,-36 19,33 55,32 75,47 39,34 19,84 -32,88 12,66 -34,120 -76,123 -25,4 -48,2 -71,-6 0,11 5,27 15,36 12,0 14,-5 21,-16 13,-15 20,-6 21,5 -12,20 -27,56 -55,48 -13,-6 -33,-46 -36,-75 -17,-39 -3,-51 22,-41 21,4 47,20 73,11 60,-8 78,-97 3,-118 -18,-5 -13,-39 6,-45 18,13 36,29 56,39 41,18 58,-20 21,-31 -23,-8 -49,-8 -70,-29zm-126 29c-12,-8 -5,-20 7,-17l24 18c12,13 3,16 -8,11l-23 -12zm1320 827c-6,-19 28,-30 33,-10 6,19 -27,29 -33,10zm34 -38c-6,-18 27,-27 32,-10 6,18 -27,28 -32,10zm-39 1c-6,-17 26,-27 32,-9 5,18 -27,27 -32,9zm-291 327c19,-18 47,11 28,29 -19,18 -47,-11 -28,-29zm288 -382c2,-18 0,-37 -3,-56 -1,-10 17,-3 20,5 3,21 3,39 2,59 -3,10 -12,10 -19,-8zm38 -59c2,-18 0,-37 -3,-56 -1,-10 17,-3 20,5 3,21 3,39 2,59 -3,10 -12,10 -19,-8zm-82 114c-13,-13 8,-49 23,-46 10,0 16,9 18,16 2,4 3,6 -2,6l-10 -7c-9,-2 -19,19 -9,22 5,1 10,0 14,-2 4,-1 6,4 -1,8 -10,5 -22,10 -33,3zm-933 165c18,-13 57,19 50,36 -2,12 -14,17 -23,18 -5,2 -8,2 -7,-3l10 -11c5,-10 -18,-26 -23,-15 -2,6 -2,11 -1,17 0,5 -6,6 -9,-3 -4,-13 -7,-28 3,-39zm894 -46l12 -88c11,-10 20,-4 20,12l-10 81c-9,19 -17,6 -22,-5zm-85 51c-10,8 -35,-2 -18,-27 9,-13 34,-6 38,10 4,16 -6,50 -27,62 6,-14 13,-27 7,-45zm-263 122c-11,-3 -17,-27 10,-27 14,-1 23,20 14,32 -10,12 -39,23 -59,15 13,-4 26,-6 35,-20zm-435 -56c-9,-10 0,-36 25,-20 14,7 9,33 -7,38 -16,6 -50,-2 -64,-22 15,5 28,10 46,4zm-191 -130c-8,-10 3,-35 27,-17 13,9 6,34 -11,38 -17,3 -50,-8 -61,-29 14,6 27,13 45,8zm796 124l35 -54c2,-8 28,-9 25,4 -12,18 -25,39 -36,58 -9,5 -29,10 -24,-8zm-97 39l55 -34c5,-7 29,4 21,14 -19,12 -39,25 -57,37 -11,1 -31,-3 -19,-17zm-182 56l49 -29c5,-6 26,3 19,11 -17,10 -35,21 -51,32 -10,1 -28,-3 -17,-14zm-59 0l49 -29c4,-6 26,3 19,11 -17,10 -35,21 -52,32 -9,1 -27,-3 -16,-14zm-216 -51l62 -17c7,-5 27,10 17,17 -21,6 -44,13 -65,19 -11,-1 -29,-10 -14,-19zm-562 -404l33 50c6,5 -2,28 -11,21 -11,-18 -24,-36 -36,-53 -1,-10 1,-29 14,-18zm712 462l43 -23c4,-5 23,3 16,9 -14,8 -30,17 -45,25 -8,1 -24,-1 -14,-11zm-12 -21l42 -21c4,-4 22,2 16,8 -14,8 -30,16 -44,24 -8,0 -23,-2 -14,-11zm120 57c-5,-4 -20,-2 -18,7 2,30 29,41 42,17 6,11 35,11 31,-24 -2,-11 -9,-8 -16,2 0,18 -11,9 -14,2 -4,-2 -8,-3 -10,2 -4,15 -18,19 -15,-6zm-600 -411c0,-7 -8,-19 -15,-13 -26,16 -23,45 4,45 -7,10 7,36 35,17 9,-8 3,-13 -9,-14 -16,8 -13,-5 -8,-11 0,-5 -1,-9 -6,-8 -16,3 -25,-8 -1,-16zm839 336c-7,-2 -20,4 -16,13 13,23 39,33 47,3 9,11 40,1 25,-32 -6,-11 -10,-8 -15,5 9,17 -9,13 -14,6 -5,-2 -9,-1 -10,4 -2,18 -6,27 -17,1zm-803 -349c11,-7 20,3 12,13l-25 14c-16,6 -16,-3 -7,-11l20 -16zm1155 -23c7,-9 40,5 69,19 27,17 45,41 57,74 -6,14 -13,1 -15,-4 -15,-16 -48,-51 -102,-61 -5,-2 -17,-26 -9,-28zm-20 247c-4,36 -24,55 -55,63 7,41 -6,61 -38,79 -12,3 -40,9 -46,5 -14,-2 -35,-37 12,-30 42,7 65,-50 29,-54 -15,-4 -38,-12 -43,-19 -20,-21 -18,-59 15,-42 15,11 20,22 34,31 20,12 31,11 46,0 11,-15 17,-14 22,-35 1,-15 -2,-23 -7,-34 -15,-21 -2,-45 16,-37 13,35 32,60 56,75 -11,-16 -16,-34 -14,-54l12 -20c5,-6 -11,-19 5,-28 11,4 17,11 20,0 13,-6 -29,-22 2,-30 10,-3 21,9 24,-7 7,-13 -52,-12 -14,-38 22,5 45,23 40,50 -5,17 -16,17 -35,16 0,7 7,19 4,27 -6,4 -8,14 -22,7 0,12 -11,24 -11,34 -1,28 15,30 14,35 4,10 -15,32 -28,31 -13,-6 -29,-15 -38,-25zm-235 89c-8,-4 2,-53 17,-35 16,22 45,62 56,109 4,18 -1,55 -12,36 -5,-40 -32,-78 -61,-110zm-500 37c-3,-10 29,-34 28,-9 -1,29 -12,76 -28,120 -11,28 -28,41 -24,17 13,-35 20,-78 24,-128zm-375 -236c6,-8 47,6 25,19 -25,14 -81,43 -127,52 -19,1 -42,-7 -20,-16 36,-9 81,-30 122,-55zm762 331c-2,-13 6,-28 20,-15 16,42 50,52 81,28 24,-24 22,-47 -11,-65 -7,-4 2,-44 23,-32 19,16 30,33 36,60 0,23 -7,39 -22,53 -23,19 -58,40 -92,20 -17,-12 -32,-27 -35,-49zm-829 -356c19,0 47,31 14,37 -37,-3 -56,26 -79,35 -49,12 -79,-31 -54,-74 -49,-24 -52,-77 -29,-106 12,-18 31,-27 52,-33 -9,-6 -46,-15 -59,-12 -4,0 1,11 6,23 5,19 -7,22 -16,5 -10,-20 -33,-35 -11,-53 24,-7 42,-1 105,13 34,5 41,39 12,42 -21,8 -57,16 -67,34 -23,48 31,80 79,45 15,-12 39,4 33,23 -21,7 -43,13 -62,24 -37,22 -18,61 11,37 20,-14 37,-35 65,-40zm734 321c-1,-17 4,-41 35,-34 29,-5 50,49 1,51 -7,11 -4,40 -17,3 -13,7 -23,11 -31,23l54 -2c17,0 60,-3 17,31 -23,29 -48,43 -76,52 -15,2 -34,5 -44,-7 0,26 -47,34 -48,0 -22,14 -52,26 -78,3 -35,20 -75,39 -109,-5 -14,-22 3,-39 28,-19 9,14 78,32 56,-56 -13,-27 44,-71 40,-19 -9,18 -13,34 -3,54 3,35 43,35 91,-1 23,16 50,28 85,13 24,-7 43,-34 -28,-16 -15,-1 -35,8 -19,-29 10,-21 23,-35 46,-42zm-350 40c3,-11 5,-23 5,-45 7,-31 41,-20 31,27 -6,70 -73,95 -136,77 -58,-26 -62,-53 -8,-25 31,9 91,10 108,-34zm-240 -125c9,-1 13,11 8,16 -8,-2 -9,-3 -15,-9 2,-5 3,-5 7,-7zm117 24c11,-9 24,-11 27,5 3,29 23,54 29,12 3,-5 9,-5 13,2 -2,28 22,44 25,6 7,-8 18,-12 22,10 -3,22 -7,46 -35,49 -13,-1 -24,-4 -28,-22 -21,12 -49,2 -50,-32 -33,10 -73,14 -102,-5 -17,30 -78,42 -106,-7 -17,-42 -13,-61 19,-13 16,23 50,28 62,7 -10,-5 -25,-19 -24,-32 16,-44 74,-32 64,21 11,16 58,17 84,-1zm-312 -115c-9,36 18,99 103,75 22,-1 74,-76 90,-81 11,-11 31,-20 49,-18 19,-14 14,-32 -23,-31 -16,6 -36,18 -50,30 -22,13 -56,64 -71,68 -38,17 -75,-7 -68,-42 0,-13 9,-20 20,-29 22,-23 6,-29 -21,-14 -14,11 -25,23 -29,42zm1329 -295c4,-9 13,-11 20,-9 3,5 -4,26 -9,31 -5,2 -15,-16 -11,-22zm-24 -6c-5,-26 42,-34 68,-29 58,14 85,69 48,146 -10,28 -17,21 -12,0 15,-73 -4,-95 -40,-98 -3,12 -13,41 -27,46 -7,2 -38,-34 -37,-65zm-1364 341l-164 133 73 9 120 -108c-10,-11 -19,-22 -29,-34zm1370 34l120 108 73 -9 -164 -133c-9,12 -19,23 -29,34zm-1144 165l-291 472 7 75 68 -31 263 -489c-16,-8 -31,-17 -47,-27zm119 62l-135 317 -89 37 183 -373c13,7 27,13 41,19zm1195 -505l196 76 -28 -68 -153 -50c-5,14 -10,28 -15,42zm-1704 -69l-91 27 13 -28 -25 -18 92 -22c3,14 7,28 11,41zm1430 446l133 164 9 -73 -108 -120c-11,10 -22,20 -34,29zm297 -446l91 27 -12 -28 24 -18 -92 -22c-3,14 -7,28 -11,41zm-1117 611l-27 90 28 -12 18 24 22 -91c-14,-4 -27,-7 -41,-11zm69 17l-33 157 44 59 33 -208c-15,-2 -30,-5 -44,-8zm1012 -527l317 136 37 88 -373 -182c7,-14 13,-28 19,-42zm-934 540l-41 342 58 76 28 -414c-15,-1 -30,-2 -45,-4zm360 -30l27 90 -28 -12 -18 24 -22 -91c14,-4 28,-7 41,-11zm-68 17l33 157 -45 59 -33 -208c15,-2 30,-5 45,-8zm-212 19l-17 554 44 61 43 -61 -16 -554c-9,0 -18,0 -27,0 -9,0 -18,0 -27,0zm134 -6l41 342 -59 76 -28 -414c15,-1 31,-2 46,-4zm173 -39l50 153 68 28 -76 -196c-14,6 -28,11 -42,15zm74 -28l136 317 88 37 -182 -373c-14,7 -28,13 -42,19zm267 -176l65 69 3 -31 31 -3 -69 -65c-10,10 -20,20 -30,30zm99 -112l276 207 95 -13 -344 -231c-9,12 -18,25 -27,37zm-1486 -66l-472 291 -74 -7 31 -68 488 -263c8,16 17,32 27,47zm18 29l-344 231 95 13 276 -207c-9,-12 -18,-25 -27,-37zm-108 -222l-153 50 -28 68 196 -76c-5,-14 -10,-28 -15,-42zm1648 146l489 263 31 68 -75 7 -472 -291c10,-15 19,-31 27,-47zm-1414 225l-65 69 -3 -31 -30 -3 68 -65c10,10 20,20 30,30zm1161 69l207 276 -13 95 -231 -344c12,-9 25,-18 37,-27zm-1106 -21l-132 164 -10 -73 108 -120c11,10 23,20 34,29zm65 48l-232 344 -13 -95 207 -276c12,9 25,18 38,27zm179 93l-75 196 67 -28 50 -153c-14,-4 -28,-9 -42,-15zm-505 -486l-317 136 -36 88 372 -182c-7,-14 -13,-28 -19,-42zm1108 -1210l50 -153 68 -28 -76 196c-14,-5 -28,-10 -42,-15zm74 28l136 -317 88 -36 -182 372c-14,-6 -28,-13 -42,-19zm297 207l69 -66 -31 -3 -3 -30 -65 68c10,10 20,20 30,31zm-51 -50l108 -120 -9 -72 -133 163c12,10 23,19 34,29zm-174 -122l263 -488 68 -31 7 74 -291 472c-15,-9 -31,-18 -47,-27zm-1290 539l-91 -27 13 28 -25 18 92 23c4,-14 7,-28 11,-42zm1403 -467l207 -276 -13 -95 -231 345c12,8 25,17 37,26zm-1348 325l-372 -183 36 89 317 136c6,-15 13,-29 19,-42zm1672 142l91 -27 -12 28 24 18 -92 23c-3,-14 -7,-28 -11,-42zm-1117 -610l-27 -91 28 13 18 -25 22 92c-14,3 -27,7 -41,11zm69 -18l-33 -157 44 -58 33 207c-15,3 -30,5 -44,8zm-486 281l-120 -108 -73 10 164 132c10,-11 19,-23 29,-34zm-169 278l-197 -75 28 67 153 50c5,-14 10,-28 16,-42zm366 -443l-291 -472 7 -74 68 31 263 488c-16,9 -31,18 -47,27zm119 -62l-135 -317 -89 -36 183 372c13,-6 27,-13 41,-19zm-438 401l-488 -263 -31 -68 74 -7 472 292c-9,15 -18,30 -27,46zm512 -429l-50 -153 -67 -28 75 196c14,-5 28,-10 42,-15zm-440 316l-276 -207 -95 13 345 232c8,-13 17,-26 26,-38zm1420 -27l164 -132 -73 -10 -120 108c10,11 20,23 29,34zm48 65l344 -232 -95 -13 -276 207c9,12 18,25 27,38zm93 179l196 -75 -28 67 -153 50c-5,-14 -10,-28 -15,-42zm-48 -104l489 -263 31 -68 -75 -7 -472 292c10,15 19,30 27,46zm16 31l373 -183 -37 89 -317 136c-6,-15 -12,-29 -19,-42zm-1460 -225l-68 -66 30 -3 3 -30 65 68c-10,10 -20,20 -30,31zm51 -50l-108 -120 10 -72 132 163c-11,10 -23,19 -34,29zm61 -50l-207 -276 13 -95 232 345c-13,8 -26,17 -38,26zm478 -178l-28 -413 -58 75 41 343c15,-2 30,-4 45,-5zm488 1691l263 489 68 31 7 -75 -291 -472c-15,10 -31,19 -47,27zm-214 -1667l22 -92 18 25 28 -13 -27 91c-13,-4 -27,-8 -41,-11zm-72 -15l33 -207 45 58 -33 157c-15,-3 -30,-5 -45,-8zm-79 -9l28 -413 59 75 -41 343c-16,-2 -31,-4 -46,-5zm214 488l44 -64c8,5 16,11 24,17l-47 62c-7,-5 -14,-10 -21,-15zm36 27l49 -61c7,6 14,12 21,19l-52 58c-6,-6 -12,-11 -18,-16zm30 26l53 -56c7,6 13,12 20,19l-57 54c-5,-6 -11,-12 -16,-17zm27 28l58 -52c6,7 12,14 18,22l-60 49c-6,-7 -11,-13 -16,-19zm27 33l63 -46c5,7 11,15 17,24l-65 43c-5,-7 -10,-14 -15,-21zm25 37l66 -41c6,10 12,19 18,29l-69 37c-5,-8 -10,-17 -15,-25zm23 42l71 -34c4,9 8,17 12,26l-72 31c-3,-8 -7,-15 -11,-23zm18 41l73 -28c3,8 7,17 9,26l-74 25c-2,-8 -5,-16 -8,-23zm13 37l75 -22c2,9 5,18 7,27l-76 18c-2,-7 -4,-15 -6,-23zm9 38l555 -116 59 44 -609 96c-2,-8 -3,-16 -5,-24zm7 43l746 -89 76 58 -819 56c-1,-8 -2,-17 -3,-25zm4 44l960 -29 60 44 -60 43 -960 -29c0,-4 0,-9 0,-14 0,-5 0,-10 0,-15zm-1 48l819 56 -76 59 -746 -90c1,-8 2,-16 3,-25zm-5 44l609 96 -59 45 -555 -117c2,-8 3,-16 5,-24zm-8 39l76 18c-3,9 -5,18 -7,27l-75 -22c2,-8 4,-15 6,-23zm-11 38l74 24c-3,9 -6,18 -9,27l-73 -28c3,-8 6,-16 8,-23zm-15 40l72 31c-4,9 -8,18 -13,26l-70 -34c4,-7 8,-15 11,-23zm-19 40l68 37c-5,10 -11,20 -17,29l-66 -41c5,-8 10,-16 15,-25zm-25 41l64 44c-5,8 -11,16 -16,24l-63 -47c5,-7 10,-14 15,-21zm-26 36l60 49c-6,7 -12,14 -18,21l-58 -52c5,-6 10,-12 16,-18zm-27 30l57 53c-7,7 -13,13 -20,20l-53 -57c5,-5 11,-11 16,-16zm-28 27l52 58c-7,6 -14,12 -21,18l-49 -60c6,-5 12,-11 18,-16zm-33 27l46 62c-7,6 -15,12 -23,17l-44 -64c7,-5 14,-10 21,-15zm-37 25l41 66c-9,6 -19,12 -29,17l-37 -68c9,-5 17,-10 25,-15zm-42 23l34 70c-8,5 -17,9 -26,12l-31 -71c8,-3 16,-7 23,-11zm-40 18l28 73c-9,3 -18,6 -27,9l-24 -74c7,-2 15,-5 23,-8zm-38 13l22 74c-9,3 -18,5 -27,7l-18 -75c8,-2 15,-4 23,-6zm-38 9l16 76c-9,2 -19,4 -28,5l-12 -76c8,-2 16,-3 24,-5zm-43 7l10 77c-10,1 -20,2 -30,3l-5 -77c9,-1 17,-2 25,-3zm-44 4l3 77c-6,0 -12,0 -17,0 -6,0 -12,0 -17,0l2 -77c5,0 10,0 15,0 5,0 9,0 14,0zm-48 -1l-5 77c-10,-1 -20,-2 -29,-3l9 -77c8,1 17,2 25,3zm-44 -5l-12 76c-9,-1 -19,-3 -28,-5l16 -76c8,2 16,3 24,5zm-39 -8l-18 75c-9,-2 -18,-4 -27,-7l22 -74c8,2 15,4 23,6zm-37 -11l-24 74c-10,-3 -18,-6 -27,-9l27 -73c8,3 16,6 24,8zm-41 -15l-30 71c-9,-3 -18,-7 -27,-12l34 -70c8,4 15,8 23,11zm-40 -19l-36 68c-11,-5 -20,-11 -30,-17l41 -66c8,5 17,10 25,15zm-41 -25l-43 64c-9,-5 -17,-11 -24,-16l46 -63c7,5 14,10 21,15zm-35 -26l-49 60c-8,-6 -15,-12 -22,-18l52 -58c6,5 12,10 19,16zm-30 -27l-54 57c-7,-7 -13,-13 -19,-20l56 -53c5,5 11,11 17,16zm-27 -28l-58 52c-7,-7 -13,-14 -19,-21l61 -49c5,6 10,12 16,18zm-28 -33l-62 47c-6,-8 -12,-16 -17,-24l64 -44c5,7 10,14 15,21zm-25 -37l-66 41c-6,-9 -12,-19 -17,-29l68 -37c5,9 10,17 15,25zm-23 -42l-70 34c-4,-8 -8,-17 -12,-26l71 -31c4,8 7,16 11,23zm-18 -40l-72 28c-4,-9 -7,-18 -10,-27l74 -24c3,7 5,15 8,23zm-13 -38l-74 22c-3,-9 -5,-18 -7,-27l75 -18c2,8 4,15 6,23zm-9 -38l-555 117 -58 -45 609 -96c1,8 2,16 4,24zm-7 -43l-746 90 -75 -59 819 -56c0,9 1,17 2,25zm-3 -44l-961 29 -60 -43 60 -44 961 29c0,5 -1,10 -1,15 0,5 1,10 1,14zm1 -48l-819 -56 75 -58 746 89c-1,8 -2,17 -2,25zm5 -44l-609 -96 58 -44 555 116c-2,8 -3,16 -4,24zm7 -39l-76 -18c3,-9 5,-18 7,-27l75 22c-2,8 -4,16 -6,23zm11 -37l-74 -25c3,-9 6,-18 9,-26l73 28c-3,7 -5,15 -8,23zm15 -41l-72 -31c4,-9 8,-17 13,-26l70 34c-4,8 -7,15 -11,23zm19 -40l-68 -37c5,-10 11,-19 17,-29l66 41c-5,8 -10,17 -15,25zm25 -41l-64 -43c5,-9 11,-17 17,-24l62 46c-5,7 -10,14 -15,21zm27 -35l-61 -49c6,-8 12,-15 18,-22l59 52c-6,6 -11,12 -16,19zm26 -30l-56 -54c6,-7 12,-13 19,-19l54 56c-6,5 -12,11 -17,17zm28 -27l-52 -58c7,-7 14,-13 22,-19l49 61c-7,5 -13,10 -19,16zm33 -28l-46 -62c7,-6 15,-12 24,-17l43 64c-7,5 -14,10 -21,15zm37 -25l-41 -66c10,-6 19,-12 30,-17l36 68c-8,5 -17,10 -25,15zm42 -23l-34 -70c9,-4 18,-8 27,-12l30 71c-8,4 -15,7 -23,11zm40 -18l-27 -72c8,-4 17,-7 27,-10l24 74c-8,3 -16,5 -24,8zm38 -13l-22 -74c9,-3 18,-5 27,-7l18 75c-8,2 -15,4 -23,6zm38 -9l-16 -76c9,-2 19,-4 28,-5l12 77c-8,1 -16,2 -24,4zm43 -7l-9 -77c9,-1 19,-2 29,-3l5 78c-8,0 -17,1 -25,2zm44 -3l-2 -78c5,0 11,0 17,0 5,0 11,0 17,0l-3 78c-5,0 -9,0 -14,0 -5,0 -10,0 -15,0zm48 1l5 -78c10,1 20,2 30,3l-10 77c-8,-1 -16,-2 -25,-2zm44 5l12 -77c9,1 19,3 28,5l-16 76c-8,-2 -16,-3 -24,-4zm39 7l18 -75c9,2 18,4 27,7l-22 74c-8,-2 -15,-4 -23,-6zm38 11l24 -74c9,3 18,6 27,10l-28 72c-8,-3 -16,-5 -23,-8zm40 15l31 -71c9,4 18,8 26,12l-34 70c-7,-4 -15,-7 -23,-11zm40 19l37 -68c10,5 20,11 29,17l-41 66c-8,-5 -16,-10 -25,-15zm-234 -1079l43 60 -16 555c-9,-1 -18,-1 -27,-1 -9,0 -18,0 -27,1l-17 -555 44 -60z"/>
   <path class="fil0" d="M2186 5128l74 83 102 -45 -56 96 74 83 -109 -24 -56 96 -11 -110 -108 -24 102 -44 -12 -111zm4099 0l-74 83 -102 -45 57 96 -74 83 108 -24 56 96 11 -110 108 -24 -102 -44 12 -111z"/>
   <path class="fil3" d="M1814 4929l-18 -74 200 -46c31,-8 52,-13 61,-17 14,-7 24,-17 31,-31 6,-14 7,-31 2,-52 -5,-21 -12,-35 -24,-44 -11,-9 -23,-13 -36,-12 -13,1 -34,5 -63,11l-204 47 -17 -74 194 -45c44,-10 75,-15 95,-16 19,0 36,4 51,12 15,8 28,20 40,36 12,17 21,39 27,68 9,35 11,63 7,83 -4,20 -12,36 -22,50 -11,13 -23,23 -36,30 -20,10 -51,19 -92,29l-196 45zm289 -457l-376 28 -6 -74 241 -174 -253 19 -5 -70 376 -29 6 76 -236 172 248 -19 5 71zm-13 -378l-377 -29 6 -76 377 29 -6 76zm26 -244l-396 65 15 -81 292 -45 -259 -140 15 -80 347 199 -14 82zm54 -250l-358 -120 89 -265 61 20 -65 193 80 26 60 -179 60 21 -60 179 97 32 67 -199 61 20 -92 272zm122 -331l-328 -188 81 -139c20,-35 37,-59 52,-71 15,-13 33,-20 54,-20 20,-1 40,4 59,15 25,14 41,33 49,57 8,23 5,50 -7,82 16,-10 32,-16 48,-20 15,-3 40,-6 74,-7l87 -3 -45 79 -99 6c-35,3 -58,5 -68,8 -10,2 -19,6 -25,12 -7,5 -14,16 -23,31l-8 13 137 79 -38 66zm-151 -175l28 -48c18,-32 28,-53 30,-62 2,-9 1,-18 -3,-27 -4,-8 -11,-15 -21,-20 -11,-7 -21,-9 -31,-7 -11,2 -20,8 -27,17 -4,5 -14,21 -29,48l-30 52 83 47zm241 -209l40 -63c22,12 42,16 59,12 18,-3 34,-14 48,-32 15,-20 22,-37 22,-53 -1,-17 -6,-29 -17,-38 -7,-5 -15,-8 -23,-7 -8,0 -18,4 -30,11 -8,5 -25,18 -50,38 -33,26 -61,40 -83,44 -30,6 -57,-1 -81,-19 -15,-12 -26,-28 -33,-47 -6,-19 -7,-39 -1,-60 6,-22 17,-44 35,-67 29,-37 60,-59 91,-64 31,-6 61,1 89,22l-45 62c-17,-10 -33,-13 -46,-10 -13,3 -26,13 -39,30 -14,17 -21,34 -21,49 -1,10 3,18 11,24 7,6 15,7 25,5 12,-2 33,-15 63,-39 30,-24 54,-40 72,-48 18,-8 37,-11 56,-9 19,2 38,10 56,25 17,13 30,30 37,52 8,21 8,43 2,66 -6,23 -20,47 -40,73 -29,38 -60,60 -93,66 -34,7 -68,-1 -104,-23zm336 -205l-260 -274 55 -52 260 273 -55 53zm175 -155l-195 -246 -88 69 -39 -50 235 -186 39 50 -87 69 195 246 -60 48zm453 -290l-72 41 -71 -58 -131 76 16 90 -70 41 -62 -401 70 -40 320 251zm-196 -60l-116 -94 26 146 90 -52zm178 -60l68 -31c12,22 26,36 43,43 17,6 36,6 58,-2 23,-8 39,-19 47,-32 8,-14 10,-28 6,-41 -3,-8 -8,-15 -15,-19 -7,-4 -17,-6 -31,-6 -9,-1 -30,1 -63,4 -42,3 -73,1 -93,-8 -29,-12 -48,-33 -58,-61 -6,-18 -6,-37 -2,-57 5,-19 16,-36 32,-51 17,-15 39,-27 66,-37 45,-15 82,-16 111,-4 30,12 51,34 63,67l-71 27c-10,-17 -21,-28 -34,-33 -13,-4 -29,-3 -49,4 -21,7 -36,17 -45,29 -5,9 -6,17 -3,27 3,8 9,14 18,18 12,4 36,5 74,1 38,-4 67,-4 87,-1 19,3 37,11 51,23 15,12 26,29 34,52 7,20 8,42 3,63 -5,22 -17,41 -35,57 -18,16 -42,29 -73,39 -45,16 -83,17 -115,5 -31,-13 -56,-38 -74,-76zm535 -34l-28 -377 114 -9 87 252 47 -262 114 -9 29 377 -70 5 -23 -296 -52 302 -73 6 -97 -291 23 296 -71 6zm487 -403l76 9 -25 203c-4,33 -6,54 -5,63 1,16 7,29 18,40 11,11 27,18 48,20 21,3 38,0 50,-7 12,-7 19,-17 23,-30 4,-12 8,-34 11,-63l26 -208 76 10 -24 197c-6,45 -12,76 -18,95 -7,18 -16,32 -29,44 -12,11 -28,20 -48,25 -19,5 -43,6 -73,2 -36,-4 -62,-12 -79,-22 -18,-11 -31,-23 -40,-38 -9,-14 -15,-29 -16,-44 -2,-22 -1,-54 4,-96l25 -200zm331 427l103 -364 73 21 -40 143 143 40 40 -143 74 21 -103 363 -73 -20 45 -159 -143 -41 -45 159 -74 -20zm668 266l-73 -38 9 -91 -134 -69 -67 62 -73 -36 303 -270 71 36 -36 406zm-57 -197l17 -149 -109 102 92 47zm92 217l233 -298 90 71 -105 245 211 -162 90 71 -232 297 -56 -43 183 -235 -242 189 -58 -46 125 -280 -183 235 -56 -44zm342 277l285 -248 75 87 -150 220 239 -119 75 87 -285 248 -47 -54 225 -195 -274 139 -48 -56 176 -251 -225 195 -46 -53zm450 635l-42 -71 58 -72 -75 -131 -90 16 -41 -70 400 -62 41 70 -251 320zm59 -196l95 -115 -146 25 51 90zm311 113l46 131c10,30 15,53 16,70 1,23 -4,45 -14,65 -11,21 -26,39 -46,54 -21,16 -47,30 -81,41 -29,10 -56,15 -80,15 -29,0 -54,-5 -76,-16 -16,-8 -32,-22 -46,-41 -10,-14 -20,-34 -29,-61l-47 -135 357 -123zm-35 93l-236 81 18 54c7,20 13,34 18,42 7,11 16,19 25,24 10,5 23,8 41,7 18,-1 40,-6 68,-15 28,-10 48,-19 61,-29 13,-10 22,-21 28,-33 5,-11 7,-24 5,-39 -1,-11 -7,-31 -17,-60l-11 -32zm-209 390l368 -85 18 75 -368 85 -18 -75zm43 245l158 -20 200 -164 11 88 -137 107 159 68 11 87 -235 -110 -157 20 -10 -76zm7 543l2 -82 87 -30 4 -152 -85 -33 3 -81 373 157 -2 81 -382 140zm154 -135l141 -49 -138 -55 -3 104zm-168 176l368 85 -17 75 -145 -34 -34 145 145 33 -17 75 -368 -85 17 -75 161 37 34 -144 -161 -38 17 -74z"/>
   <path class="fil3" d="M2425 5884l113 -109 41 -267 73 76 -32 179 178 -28 72 76 -270 30 -112 108 -63 -65zm308 51c22,-31 47,-53 73,-65 19,-10 40,-15 64,-17 23,-2 45,0 66,7 29,8 58,23 87,45 54,39 87,84 99,135 12,51 0,101 -35,150 -36,48 -79,75 -131,79 -52,4 -105,-13 -158,-52 -54,-39 -87,-84 -99,-135 -12,-50 -1,-99 34,-147zm77 53c-25,34 -34,66 -28,98 7,31 24,58 54,79 29,21 59,30 91,26 31,-4 60,-23 85,-58 25,-34 35,-67 29,-97 -6,-30 -24,-56 -55,-78 -30,-22 -61,-32 -92,-28 -31,4 -59,23 -84,58zm479 343l26 -58 178 80 -60 135c-24,6 -54,7 -92,3 -38,-4 -73,-13 -107,-28 -43,-19 -77,-43 -102,-73 -25,-29 -40,-61 -43,-96 -4,-34 1,-68 16,-101 16,-35 39,-63 69,-82 30,-20 65,-29 106,-29 32,1 67,10 106,27 51,23 87,49 108,80 20,30 28,63 22,98l-88 -24c2,-19 -3,-37 -15,-54 -11,-17 -29,-30 -53,-41 -36,-16 -69,-20 -99,-10 -30,10 -53,33 -70,70 -18,41 -20,76 -8,106 13,29 37,52 72,68 17,7 36,12 56,14 20,3 38,2 54,0l19 -43 -95 -42zm319 254l36 -152 -111 -247 103 24 70 167 134 -119 102 24 -209 172 -36 152 -89 -21zm641 86l-98 -7 -32 -87 -180 -14 -43 81 -96 -7 202 -357 96 7 151 384zm-155 -159l-51 -142 -71 132 122 10zm206 159l-44 -369 90 -10 20 163 163 -185 121 -14 -152 163 204 205 -117 13 -143 -158 -65 70 13 111 -90 11zm837 -168l-94 26 -60 -71 -174 48 -13 92 -92 26 68 -405 93 -26 272 310zm-199 -98l-97 -115 -22 148 119 -33zm242 71l-164 -333 171 -85c43,-21 76,-34 98,-37 23,-4 43,-1 63,8 19,10 34,24 43,44 13,25 14,50 4,75 -9,25 -31,49 -64,70 22,0 41,2 57,7 17,4 41,15 73,31l81 41 -97 48 -94 -44c-34,-16 -56,-25 -67,-28 -11,-3 -22,-3 -32,-1 -10,1 -24,7 -43,16l-16 8 69 139 -82 41zm-13 -233l60 -29c39,-20 63,-33 71,-41 8,-7 14,-16 16,-25 2,-9 1,-19 -4,-29 -6,-11 -14,-19 -25,-22 -10,-3 -23,-3 -37,2 -7,3 -27,12 -60,28l-63 32 42 84zm494 -41l-181 -250 -108 78 -37 -51 289 -209 37 51 -107 77 180 251 -73 53zm471 -431l-67 71 -88 -31 -125 130 35 85 -67 70 -147 -383 67 -70 392 128zm-221 18l-142 -51 57 139 85 -88z"/>
  </g>
 </g>
</svg>
